<svg xmlns="http://www.w3.org/2000/svg" version="1.1" xmlns:xlink="http://www.w3.org/1999/xlink" xmlns:svgjs="http://svgjs.com/svgjs" width="1440" height="560" preserveAspectRatio="none" viewBox="0 0 1440 560"><g mask="url(&quot;#SvgjsMask1079&quot;)" fill="none"><rect width="1440" height="560" x="0" y="0" fill="rgba(251, 236, 253, 1)"></rect><path d="M1410.912,349.12C1454.741,346.407,1491.014,320.71,1515.188,284.05C1542.777,242.212,1567.502,191.254,1544.305,146.831C1519.946,100.183,1463.432,81.032,1410.912,84.359C1363.757,87.346,1328.318,121.613,1303.893,162.059C1278.359,204.343,1257.062,255.634,1281.591,298.509C1306.228,341.573,1361.393,352.185,1410.912,349.12" fill="rgba(243, 121, 174, 0.12)" class="triangle-float1"></path><path d="M712.923,563.45C734.648,564.374,755.307,552.977,766.31,534.221C777.442,515.245,777.036,491.785,766.193,472.643C755.189,453.217,735.226,438.961,712.923,439.973C691.957,440.925,676.979,458.442,667.419,477.126C658.815,493.941,658.056,513.281,666.864,529.99C676.348,547.982,692.602,562.586,712.923,563.45" fill="rgba(243, 121, 174, 0.12)" class="triangle-float3"></path><path d="M-139.47 300.68 a179.59 179.59 0 1 0 359.18 0 a179.59 179.59 0 1 0 -359.18 0z" fill="rgba(243, 121, 174, 0.12)" class="triangle-float1"></path><path d="M226.653,497.887C269.059,499.016,314.166,487.521,335.742,450.997C357.605,413.987,346.914,368.215,325.151,331.147C303.709,294.626,268.989,264.087,226.653,265.193C185.748,266.262,156.454,300.245,136.684,336.071C117.734,370.411,108.125,411.163,127.184,445.443C146.706,480.555,186.493,496.818,226.653,497.887" fill="rgba(243, 121, 174, 0.12)" class="triangle-float1"></path><path d="M1420.842,387.578C1443.057,388.826,1466.335,384.003,1479.209,365.856C1494.219,344.698,1500.301,316.238,1487.433,293.712C1474.488,271.051,1446.831,261.301,1420.842,263.679C1398.385,265.734,1382.54,284.053,1372.469,304.23C1363.59,322.019,1362.848,342.683,1372.828,359.879C1382.769,377.007,1401.069,386.467,1420.842,387.578" fill="rgba(243, 121, 174, 0.12)" class="triangle-float1"></path><path d="M1082.5711380040975-21.049523117124863L1000.1053403016095 30.480826447914474 1051.6356898666488 112.94662415040241 1134.101487569137 61.416274585363084z" fill="rgba(243, 121, 174, 0.12)" class="triangle-float2"></path><path d="M1095.62 493.85 a129.58 129.58 0 1 0 259.16 0 a129.58 129.58 0 1 0 -259.16 0z" fill="rgba(243, 121, 174, 0.12)" class="triangle-float3"></path><path d="M683.7074074419385 120.19034252982578L797.3622600567423 89.73661655581083 766.9085340827274-23.918236058993074 653.2536814679235 6.535489915021884z" fill="rgba(243, 121, 174, 0.12)" class="triangle-float2"></path><path d="M649.69 210.15 a155.32 155.32 0 1 0 310.64 0 a155.32 155.32 0 1 0 -310.64 0z" fill="rgba(243, 121, 174, 0.12)" class="triangle-float3"></path><path d="M261.3237624499816 621.9425060428605L273.5657757530175 522.239308727063 173.86257843721995 509.99729542402713 161.62056513418406 609.7004927398247z" fill="rgba(243, 121, 174, 0.12)" class="triangle-float3"></path></g><defs><mask id="SvgjsMask1079"><rect width="1440" height="560" fill="#ffffff"></rect></mask><style>
            @keyframes float1 {
                0%{transform: translate(0, 0)}
                50%{transform: translate(200px, -10px)}
                100%{transform: translate(0, 0)}
            }

            .triangle-float1 {
                animation: float1 35s infinite;
            }

            @keyframes float2 {
                0%{transform: translate(0, 30px)}
                50%{transform: translate(100px, 45px)}
                100%{transform: translate(0, 30px) }
            }

            .triangle-float2 {
                animation: float2 25s infinite;
            }

            @keyframes float3 {
                0%{transform: translate(0, 0)}
                50%{transform: translate(-100px, 50px)}
                100%{transform: translate(0, 0)}
            }

            .triangle-float3 {
                animation: float3 30s infinite;
            }
        </style></defs></svg>