<svg id="visual" viewBox="0 0 1200 900" width="1200" height="900" xmlns="http://www.w3.org/2000/svg" xmlns:xlink="http://www.w3.org/1999/xlink" version="1.1"><rect x="0" y="0" width="1200" height="900" fill="#FFFFFF"></rect><defs><linearGradient id="grad1_0" x1="25%" y1="0%" x2="100%" y2="100%"><stop offset="23.333333333333336%" stop-color="#3cfffc" stop-opacity="1"></stop><stop offset="76.66666666666666%" stop-color="#3cfffc" stop-opacity="1"></stop></linearGradient></defs><defs><linearGradient id="grad1_1" x1="25%" y1="0%" x2="100%" y2="100%"><stop offset="23.333333333333336%" stop-color="#3cfffc" stop-opacity="1"></stop><stop offset="76.66666666666666%" stop-color="#b6fffd" stop-opacity="1"></stop></linearGradient></defs><defs><linearGradient id="grad1_2" x1="25%" y1="0%" x2="100%" y2="100%"><stop offset="23.333333333333336%" stop-color="#ffffff" stop-opacity="1"></stop><stop offset="76.66666666666666%" stop-color="#b6fffd" stop-opacity="1"></stop></linearGradient></defs><defs><linearGradient id="grad2_0" x1="0%" y1="0%" x2="75%" y2="100%"><stop offset="23.333333333333336%" stop-color="#3cfffc" stop-opacity="1"></stop><stop offset="76.66666666666666%" stop-color="#3cfffc" stop-opacity="1"></stop></linearGradient></defs><defs><linearGradient id="grad2_1" x1="0%" y1="0%" x2="75%" y2="100%"><stop offset="23.333333333333336%" stop-color="#b6fffd" stop-opacity="1"></stop><stop offset="76.66666666666666%" stop-color="#3cfffc" stop-opacity="1"></stop></linearGradient></defs><defs><linearGradient id="grad2_2" x1="0%" y1="0%" x2="75%" y2="100%"><stop offset="23.333333333333336%" stop-color="#b6fffd" stop-opacity="1"></stop><stop offset="76.66666666666666%" stop-color="#ffffff" stop-opacity="1"></stop></linearGradient></defs><g transform="translate(1200, 0)"><path d="M0 675C-59.7 592.9 -119.4 510.9 -201.3 486C-283.1 461.1 -387.1 493.4 -464.6 464.6C-542 435.8 -593 345.9 -623.6 258.3C-654.3 170.7 -664.6 85.4 -675 0L0 0Z" fill="#ddfffe"></path><path d="M0 450C-39.8 395.3 -79.6 340.6 -134.2 324C-188.8 307.4 -258.1 328.9 -309.7 309.7C-361.4 290.5 -395.3 230.6 -415.7 172.2C-436.2 113.8 -443.1 56.9 -450 0L0 0Z" fill="#0f2b51"></path><path d="M0 225C-19.9 197.6 -39.8 170.3 -67.1 162C-94.4 153.7 -129 164.5 -154.9 154.9C-180.7 145.3 -197.7 115.3 -207.9 86.1C-218.1 56.9 -221.5 28.5 -225 0L0 0Z" fill="#020817"></path></g><g transform="translate(0, 900)"><path d="M0 -675C106 -684.4 211.9 -693.7 258.3 -623.6C304.7 -553.5 291.5 -404 330.9 -330.9C370.3 -257.9 462.3 -261.3 528.5 -218.9C594.6 -176.5 634.8 -88.2 675 0L0 0Z" fill="#ddfffe"></path><path d="M0 -450C70.6 -456.2 141.3 -462.5 172.2 -415.7C203.1 -369 194.3 -269.3 220.6 -220.6C246.9 -171.9 308.2 -174.2 352.3 -145.9C396.4 -117.7 423.2 -58.8 450 0L0 0Z" fill="#88fffd"></path><path d="M0 -225C35.3 -228.1 70.6 -231.2 86.1 -207.9C101.6 -184.5 97.2 -134.7 110.3 -110.3C123.4 -86 154.1 -87.1 176.2 -73C198.2 -58.8 211.6 -29.4 225 0L0 0Z" fill="#020817"></path></g></svg>