<!--?xml version="1.0" standalone="no"?-->
              <svg id="sw-js-blob-svg" viewBox="0 0 100 100" xmlns="http://www.w3.org/2000/svg" version="1.1">
                    <defs> 
                        <linearGradient id="sw-gradient" x1="0" x2="1" y1="1" y2="0">
                            <stop id="stop1" stop-color="rgba(213, 218, 221, 1)" offset="0%"></stop>
                            <stop id="stop2" stop-color="rgba(247.712, 252.267, 255, 1)" offset="100%"></stop>
                        </linearGradient>
                    </defs>
                <path fill="url(#sw-gradient)" d="M24.2,-28C31.8,-22.4,38.7,-15.2,41.2,-6.4C43.8,2.4,42.1,12.8,36.8,20.5C31.5,28.2,22.7,33.1,13.2,36.7C3.8,40.3,-6.3,42.7,-15.8,40.5C-25.3,38.3,-34.2,31.6,-39.2,22.7C-44.2,13.9,-45.3,2.9,-42.2,-6.3C-39.2,-15.4,-32.2,-22.7,-24.5,-28.2C-16.7,-33.7,-8.4,-37.6,0,-37.5C8.3,-37.5,16.6,-33.6,24.2,-28Z" width="100%" height="100%" transform="translate(50 50)" stroke-width="0" style="transition: all 0.3s ease 0s;"></path>
              </svg>