<svg width="153" height="66" viewBox="0 0 153 66" fill="none" xmlns="http://www.w3.org/2000/svg">
<path d="M93.183 65H99.228V63.388H95.107V60.827H98.474V59.202H95.107V56.979H99.085V55.38H93.183V65ZM101.025 65H102.936V59.995C103.43 59.449 103.911 59.189 104.314 59.189C105.016 59.189 105.341 59.566 105.341 60.71V65H107.252V59.995C107.772 59.449 108.227 59.189 108.643 59.189C109.345 59.189 109.657 59.566 109.657 60.71V65H111.568V60.463C111.568 58.643 110.866 57.551 109.319 57.551C108.37 57.551 107.668 58.123 106.992 58.812C106.654 58.006 106.043 57.551 104.99 57.551C104.054 57.551 103.378 58.071 102.767 58.695H102.728L102.572 57.733H101.025V65ZM116.597 65.182C118.417 65.182 120.081 63.778 120.081 61.373C120.081 58.955 118.417 57.551 116.597 57.551C114.764 57.551 113.1 58.955 113.1 61.373C113.1 63.778 114.764 65.182 116.597 65.182ZM116.597 63.635C115.596 63.635 115.05 62.738 115.05 61.373C115.05 59.995 115.596 59.111 116.597 59.111C117.585 59.111 118.131 59.995 118.131 61.373C118.131 62.738 117.585 63.635 116.597 63.635ZM121.693 65H123.604V59.995C124.137 59.475 124.514 59.189 125.112 59.189C125.814 59.189 126.139 59.566 126.139 60.71V65H128.05V60.463C128.05 58.643 127.361 57.551 125.801 57.551C124.813 57.551 124.059 58.071 123.435 58.695H123.396L123.24 57.733H121.693V65ZM132.101 65.182C133.986 65.182 134.987 64.168 134.987 62.881C134.987 61.542 133.934 61.048 132.972 60.684C132.192 60.411 131.529 60.203 131.529 59.683C131.529 59.254 131.828 58.968 132.491 58.968C133.024 58.968 133.544 59.228 134.051 59.592L134.922 58.448C134.324 57.98 133.492 57.551 132.439 57.551C130.775 57.551 129.735 58.474 129.735 59.761C129.735 60.996 130.762 61.542 131.685 61.906C132.439 62.192 133.206 62.452 133.206 62.985C133.206 63.44 132.868 63.765 132.14 63.765C131.464 63.765 130.853 63.466 130.19 62.959L129.332 64.168C130.047 64.766 131.126 65.182 132.101 65.182Z" fill="white"/>
<path d="M34 60L88 60" stroke="white"/>
<path d="M28.0059 20.2V25.55H35.6059V20.2H28.0059ZM42.9559 3.15V49.45H49.3059V3.15H42.9559ZM33.5059 3.85V47.35H39.7559V3.85H33.5059ZM19.9059 6.4C13.8059 6.4 9.90586 12.75 9.90586 23.2C9.90586 33.7 13.8059 40.05 19.9059 40.05C26.0559 40.05 30.0059 33.7 30.0059 23.2C30.0059 12.75 26.0559 6.4 19.9059 6.4ZM19.9059 12.65C22.5059 12.65 23.9559 16.15 23.9559 23.2C23.9559 30.3 22.5059 33.75 19.9059 33.75C17.4059 33.75 15.9559 30.3 15.9559 23.2C15.9559 16.15 17.4059 12.65 19.9059 12.65ZM60.652 5.3V22.35H92.102V5.3H60.652ZM85.552 10.5V17.1H67.152V10.5H85.552ZM55.502 26.95V32.25H97.352V26.95H55.502ZM73.052 20.1V29.3H79.702V20.1H73.052ZM60.552 43.35V48.65H92.652V43.35H60.552ZM60.552 35.25V45.15H67.202V35.25H60.552ZM118.698 5.8V9.15C118.698 15.8 112.948 23.15 102.498 24.95L105.348 30.45C117.348 28.1 124.498 19.2 124.498 9.15V5.8H118.698ZM120.048 5.8V9.15C120.048 19.35 127.148 28.1 139.148 30.45L141.998 24.95C131.498 23.15 125.798 15.95 125.798 9.15V5.8H120.048ZM101.548 38.4V43.8H143.448V38.4H101.548Z" fill="white"/>
</svg>
