<svg width="1201" height="300" viewBox="0 0 1201 300" fill="none" xmlns="http://www.w3.org/2000/svg">
<g clip-path="url(#clip0_132_9)">
<defs><linearGradient id="eW51mlOxUuA2-fill" x1="0" y1="251.49" x2="1920" y2="251.49" spreadMethod="pad" gradientUnits="userSpaceOnUse" gradientTransform="translate(0 0)"><stop id="eW51mlOxUuA2-fill-0" offset="0%" stop-color="#8504f5"/><stop id="eW51mlOxUuA2-fill-1" offset="100%" stop-color="#007bf5"/></linearGradient><radialGradient id="eW51mlOxUuA3-fill" cx="0" cy="0" r="829.48" spreadMethod="pad" gradientUnits="userSpaceOnUse" gradientTransform="translate(950.81 180.06)"><stop id="eW51mlOxUuA3-fill-0" offset="0%" stop-color="#f3728e"/><stop id="eW51mlOxUuA3-fill-1" offset="100%" stop-color="#f37cbc"/></radialGradient></defs>
<rect width="1200" height="276.923" transform="translate(0.153809)" fill="white"/>
<path d="M1200.15 0H0.153809V276.923H1200.15V0Z" fill="#f5f4fe"/>
<path d="M0.153809 146.769L25.2205 148.846C50.4205 150.923 100.554 155.077 150.554 153.369C200.554 151.708 250.42 144.138 300.42 141.461C350.42 138.785 400.554 140.908 450.554 145.523C500.554 150.138 550.42 157.246 600.42 157.754C650.42 158.308 700.554 152.308 750.554 147.323C800.554 142.292 850.42 138.323 900.42 145.015C950.42 151.708 1000.55 169.061 1050.55 170.308C1100.55 171.554 1150.42 156.6 1175.22 149.169L1200.15 141.692V277.385H1175.22C1150.42 277.385 1100.55 277.385 1050.55 277.385C1000.55 277.385 950.42 277.385 900.42 277.385C850.42 277.385 800.554 277.385 750.554 277.385C700.554 277.385 650.42 277.385 600.42 277.385C550.42 277.385 500.554 277.385 450.554 277.385C400.554 277.385 350.42 277.385 300.42 277.385C250.42 277.385 200.554 277.385 150.554 277.385C100.554 277.385 50.4205 277.385 25.2205 277.385H0.153809V146.769Z" fill="url(#eW51mlOxUuA2-fill)"/>
<path d="M0.153809 236.308L25.2205 234.923C50.4205 233.539 100.554 230.769 150.554 225.231C200.554 219.692 250.42 211.385 300.42 211.385C350.42 211.385 400.554 219.692 450.554 218.539C500.554 217.385 550.42 206.769 600.42 200.446C650.42 194.169 700.554 192.139 750.554 194.631C800.554 197.077 850.42 204 900.42 211.015C950.42 217.985 1000.55 225.092 1050.55 222.923C1100.55 220.754 1150.42 209.4 1175.22 203.677L1200.15 198V277.385H1175.22C1150.42 277.385 1100.55 277.385 1050.55 277.385C1000.55 277.385 950.42 277.385 900.42 277.385C850.42 277.385 800.554 277.385 750.554 277.385C700.554 277.385 650.42 277.385 600.42 277.385C550.42 277.385 500.554 277.385 450.554 277.385C400.554 277.385 350.42 277.385 300.42 277.385C250.42 277.385 200.554 277.385 150.554 277.385C100.554 277.385 50.4205 277.385 25.2205 277.385H0.153809V236.308Z" fill="url(#eW51mlOxUuA3-fill)"/>
</g>
<path d="M1200.15 276.943L1175.09 277.691C1149.89 278.438 1099.75 279.933 1049.75 282.923C999.754 285.912 949.887 290.397 899.887 290.397C849.887 290.397 799.754 285.912 749.754 286.535C699.754 287.158 649.887 292.888 599.887 296.302C549.887 299.69 499.754 300.786 449.754 299.441C399.754 298.12 349.887 294.383 299.887 290.596C249.887 286.834 199.754 282.997 149.754 284.168C99.7539 285.339 49.8872 291.468 25.0872 294.558L0.15388 297.622V254.769H25.0872C49.8872 254.769 99.7539 254.769 149.754 254.769C199.754 254.769 249.887 254.769 299.887 254.769C349.887 254.769 399.754 254.769 449.754 254.769C499.754 254.769 549.887 254.769 599.887 254.769C649.887 254.769 699.754 254.769 749.754 254.769C799.754 254.769 849.887 254.769 899.887 254.769C949.887 254.769 999.754 254.769 1049.75 254.769C1099.75 254.769 1149.89 254.769 1175.09 254.769H1200.15V276.943Z" fill="url(#eW51mlOxUuA3-fill)"/>
<defs>
<clipPath id="clip0_132_9">
<rect width="1200" height="276.923" fill="white" transform="translate(0.153809)"/>
</clipPath>
</defs>
</svg>
