<svg id="visual" viewBox="0 0 900 600" width="1500" height="1000" xmlns="http://www.w3.org/2000/svg" xmlns:xlink="http://www.w3.org/1999/xlink" version="1.1"><rect x="0" y="0" width="900" height="600" fill="#020817"></rect><path d="M0 151L21.5 155.3C43 159.7 86 168.3 128.8 175.7C171.7 183 214.3 189 257.2 183.5C300 178 343 161 385.8 149.8C428.7 138.7 471.3 133.3 514.2 129.7C557 126 600 124 642.8 132.7C685.7 141.3 728.3 160.7 771.2 161.3C814 162 857 144 878.5 135L900 126L900 601L878.5 601C857 601 814 601 771.2 601C728.3 601 685.7 601 642.8 601C600 601 557 601 514.2 601C471.3 601 428.7 601 385.8 601C343 601 300 601 257.2 601C214.3 601 171.7 601 128.8 601C86 601 43 601 21.5 601L0 601Z" fill="#0b1a3b"></path><path d="M0 260L21.5 253C43 246 86 232 128.8 234.2C171.7 236.3 214.3 254.7 257.2 254.5C300 254.3 343 235.7 385.8 231C428.7 226.3 471.3 235.7 514.2 242.5C557 249.3 600 253.7 642.8 252.2C685.7 250.7 728.3 243.3 771.2 235.5C814 227.7 857 219.3 878.5 215.2L900 211L900 601L878.5 601C857 601 814 601 771.2 601C728.3 601 685.7 601 642.8 601C600 601 557 601 514.2 601C471.3 601 428.7 601 385.8 601C343 601 300 601 257.2 601C214.3 601 171.7 601 128.8 601C86 601 43 601 21.5 601L0 601Z" fill="#08132b"></path><path d="M0 348L21.5 350.7C43 353.3 86 358.7 128.8 353.3C171.7 348 214.3 332 257.2 328.7C300 325.3 343 334.7 385.8 340.2C428.7 345.7 471.3 347.3 514.2 339.5C557 331.7 600 314.3 642.8 316.7C685.7 319 728.3 341 771.2 346C814 351 857 339 878.5 333L900 327L900 601L878.5 601C857 601 814 601 771.2 601C728.3 601 685.7 601 642.8 601C600 601 557 601 514.2 601C471.3 601 428.7 601 385.8 601C343 601 300 601 257.2 601C214.3 601 171.7 601 128.8 601C86 601 43 601 21.5 601L0 601Z" fill="#050d22"></path><path d="M0 422L21.5 415.3C43 408.7 86 395.3 128.8 390.8C171.7 386.3 214.3 390.7 257.2 401.2C300 411.7 343 428.3 385.8 437.2C428.7 446 471.3 447 514.2 442.5C557 438 600 428 642.8 418.7C685.7 409.3 728.3 400.7 771.2 399.2C814 397.7 857 403.3 878.5 406.2L900 409L900 601L878.5 601C857 601 814 601 771.2 601C728.3 601 685.7 601 642.8 601C600 601 557 601 514.2 601C471.3 601 428.7 601 385.8 601C343 601 300 601 257.2 601C214.3 601 171.7 601 128.8 601C86 601 43 601 21.5 601L0 601Z" fill="#08132b"></path><path d="M0 491L21.5 495C43 499 86 507 128.8 506.5C171.7 506 214.3 497 257.2 493.7C300 490.3 343 492.7 385.8 498.3C428.7 504 471.3 513 514.2 511.3C557 509.7 600 497.3 642.8 495.7C685.7 494 728.3 503 771.2 510.3C814 517.7 857 523.3 878.5 526.2L900 529L900 601L878.5 601C857 601 814 601 771.2 601C728.3 601 685.7 601 642.8 601C600 601 557 601 514.2 601C471.3 601 428.7 601 385.8 601C343 601 300 601 257.2 601C214.3 601 171.7 601 128.8 601C86 601 43 601 21.5 601L0 601Z" fill="#020817"></path></svg>
