<svg width="135" height="126" viewBox="0 0 135 126" fill="none" xmlns="http://www.w3.org/2000/svg">
<path d="M67.5 64.3125C68.2388 64.3117 68.9705 64.4472 69.6529 64.7112C70.3354 64.9752 70.9553 65.3624 71.4769 65.8507L88.3519 81.6007C89.3909 82.5882 89.97 83.9186 89.9633 85.3026C89.9566 86.6866 89.3646 88.0121 88.316 88.9908C87.2675 89.9694 85.8473 90.522 84.3645 90.5282C82.8816 90.5345 81.4561 89.994 80.3981 89.0242L67.5 76.9863L54.6019 89.0245C53.5448 89.9987 52.1178 90.5431 50.6322 90.5387C49.1467 90.5343 47.7233 89.9815 46.6729 89.0011C45.6225 88.0207 45.0303 86.6922 45.0257 85.3057C45.0211 83.9192 45.6043 82.5873 46.6481 81.6007L63.5231 65.8507C64.0448 65.3624 64.6646 64.9752 65.3471 64.7112C66.0296 64.4472 66.7612 64.3117 67.5 64.3125V64.3125ZM67.5 35.4375C68.2388 35.4367 68.9705 35.5722 69.6529 35.8362C70.3354 36.1002 70.9553 36.4874 71.4769 36.9757L88.3519 52.7257C89.3909 53.7132 89.97 55.0436 89.9633 56.4276C89.9566 57.8116 89.3646 59.1371 88.316 60.1158C87.2675 61.0944 85.8473 61.647 84.3645 61.6532C82.8816 61.6595 81.4561 61.119 80.3981 60.1492L67.5 48.1113L54.6019 60.1495C53.5448 61.1237 52.1178 61.6681 50.6322 61.6637C49.1467 61.6593 47.7233 61.1065 46.6729 60.1261C45.6225 59.1457 45.0303 57.8172 45.0257 56.4307C45.0211 55.0442 45.6043 53.7123 46.6481 52.7257L63.5231 36.9757C64.0448 36.4874 64.6646 36.1002 65.3471 35.8362C66.0296 35.5722 66.7612 35.4367 67.5 35.4375V35.4375Z" fill="#333333"/>
</svg>
