<svg width="135" height="126" viewBox="0 0 135 126" fill="none" xmlns="http://www.w3.org/2000/svg">
<path d="M67.5 61.6875C66.7612 61.6883 66.0295 61.5528 65.3471 61.2888C64.6646 61.0248 64.0447 60.6376 63.5231 60.1493L46.6481 44.3993C45.6091 43.4118 45.03 42.0814 45.0367 40.6974C45.0434 39.3134 45.6354 37.9879 46.684 37.0092C47.7325 36.0306 49.1527 35.478 50.6355 35.4718C52.1184 35.4655 53.5439 36.006 54.6019 36.9758L67.5 49.0137L80.3981 36.9755C81.4552 36.0013 82.8822 35.4569 84.3678 35.4613C85.8533 35.4657 87.2767 36.0185 88.3271 36.9989C89.3775 37.9793 89.9697 39.3078 89.9743 40.6943C89.9789 42.0808 89.3957 43.4127 88.3519 44.3993L71.4769 60.1493C70.9552 60.6376 70.3354 61.0248 69.6529 61.2888C68.9704 61.5528 68.2388 61.6883 67.5 61.6875V61.6875ZM67.5 90.5625C66.7612 90.5633 66.0295 90.4278 65.3471 90.1638C64.6646 89.8998 64.0447 89.5126 63.5231 89.0243L46.6481 73.2743C45.6091 72.2868 45.03 70.9564 45.0367 69.5724C45.0434 68.1884 45.6354 66.8629 46.684 65.8842C47.7325 64.9056 49.1527 64.353 50.6355 64.3468C52.1184 64.3405 53.5439 64.881 54.6019 65.8508L67.5 77.8887L80.3981 65.8505C81.4552 64.8763 82.8822 64.3319 84.3678 64.3363C85.8533 64.3407 87.2767 64.8935 88.3271 65.8739C89.3775 66.8543 89.9697 68.1828 89.9743 69.5693C89.9789 70.9558 89.3957 72.2877 88.3519 73.2743L71.4769 89.0243C70.9552 89.5126 70.3354 89.8998 69.6529 90.1638C68.9704 90.4278 68.2388 90.5633 67.5 90.5625V90.5625Z" fill="#333333"/>
</svg>
