<svg xmlns="http://www.w3.org/2000/svg" version="1.1" xmlns:xlink="http://www.w3.org/1999/xlink" xmlns:svgjs="http://svgjs.com/svgjs" width="1920" height="150" preserveAspectRatio="none" viewBox="0 0 1920 150"><g mask="url(&quot;#SvgjsMask1042&quot;)" fill="none"><rect width="1920" height="150" x="0" y="0" fill="#061029"></rect><path d="M 0,107 C 48,92.6 144,33.4 240,35 C 336,36.6 384,112.6 480,115 C 576,117.4 624,48.4 720,47 C 816,45.6 864,108.8 960,108 C 1056,107.2 1104,42.6 1200,43 C 1296,43.4 1344,109.8 1440,110 C 1536,110.2 1584,50.6 1680,44 C 1776,37.4 1872,70.4 1920,77L1920 150L0 150z" fill="#ffffff"></path></g><defs><mask id="SvgjsMask1042"><rect width="1920" height="150" fill="#ffffff"></rect></mask></defs></svg>