<svg width="460" height="322" viewBox="0 0 460 322" fill="none" xmlns="http://www.w3.org/2000/svg">
<g clip-path="url(#clip0_29_540)">
<path d="M227.635 54.7403C235.342 54.7403 241.59 48.0607 241.59 39.8209C241.59 31.5811 235.342 24.9015 227.635 24.9015C219.928 24.9015 213.68 31.5811 213.68 39.8209C213.68 48.0607 219.928 54.7403 227.635 54.7403Z" fill="#FD6584"/>
<path d="M258.866 32.7564C258.473 31.3767 257.711 30.1503 256.673 29.2279C255.636 28.3056 254.369 27.7278 253.029 27.5654C252.997 27.5626 252.966 27.5626 252.935 27.5654C252.897 27.5529 252.859 27.5435 252.82 27.5375C248.147 26.8893 242.952 28.4651 239.456 31.8959C238.158 33.1494 237.12 34.6797 236.409 36.3883C235.761 35.4418 234.907 34.6785 233.92 34.1644C232.934 33.6503 231.846 33.401 230.749 33.438C229.335 33.538 227.983 34.1019 226.88 35.0529C225.776 36.0038 224.974 37.2955 224.582 38.7519C224.539 38.9298 224.551 39.1179 224.616 39.288C224.681 39.4582 224.795 39.6013 224.942 39.6962C225.363 40.0806 225.863 40.3525 226.401 40.4896C227.556 40.7523 228.721 40.9925 229.887 41.2104C232.165 41.6351 234.456 41.9797 236.759 42.2442C238.28 42.4174 239.804 42.5552 241.332 42.6576C244.489 42.87 247.661 42.9203 250.823 42.8141C252.391 42.7582 253.896 42.7023 255.328 41.9648C256.372 41.4161 257.263 40.5861 257.915 39.5565C258.529 38.5662 258.932 37.4441 259.097 36.2692C259.261 35.0944 259.182 33.8953 258.866 32.7564Z" fill="#E6E6E6"/>
<path d="M230.158 54.4922C230.132 53.8671 230.034 53.2478 229.866 52.6483C229.47 51.2688 228.707 50.0427 227.669 49.1206C226.631 48.1985 225.364 47.6204 224.023 47.4574C223.993 47.4546 223.963 47.4546 223.934 47.4574C223.894 47.4454 223.854 47.4361 223.814 47.4295C221.228 47.0908 218.604 47.3792 216.136 48.2732C212.342 49.631 209.013 52.3689 207.408 56.2803C206.759 55.3332 205.904 54.5695 204.917 54.0554C203.93 53.5413 202.84 53.2923 201.743 53.33C200.329 53.43 198.977 53.9939 197.874 54.9448C196.77 55.8958 195.968 57.1875 195.576 58.6439C195.535 58.8218 195.548 59.009 195.613 59.1785C195.678 59.3481 195.791 59.4915 195.936 59.5882C196.357 59.9715 196.857 60.2433 197.395 60.3816C198.555 60.6442 199.715 60.8845 200.886 61.1024C203.164 61.5271 205.454 61.8717 207.753 62.1361C212.425 62.6724 217.126 62.8628 221.822 62.706C223.385 62.6502 224.895 62.5943 226.327 61.8568C227.369 61.3079 228.259 60.4778 228.909 59.4485C229.825 57.9889 230.265 56.2464 230.158 54.4922Z" fill="#E6E6E6"/>
<path d="M411.903 235.525C412.104 245.698 410.791 255.84 408.014 265.572C407.916 265.925 407.8 266.279 407.683 266.632H350.426C351.244 262.323 352.544 258.134 354.296 254.156C359.061 243.344 366.841 234.091 374.523 224.9C385.103 212.237 395.43 199.678 397.064 183.21C401.258 190.045 404.605 197.433 407.022 205.188C404.063 206.36 401.347 208.14 399.028 210.428C398.387 211.073 397.706 212.008 398.036 212.902C398.348 213.651 399.203 213.9 399.962 214.067C401.79 214.441 403.618 214.815 405.446 215.169C406.886 215.481 408.344 215.772 409.803 216.063C411.085 222.463 411.788 228.981 411.903 235.525Z" fill="#F2F2F2"/>
<path d="M460 228.788C450.82 234.756 444.986 243.988 440.221 254.322C436.074 255.333 432.246 257.483 429.115 260.56C428.454 261.205 427.773 262.141 428.124 263.035C428.415 263.783 429.291 264.033 430.049 264.199C431.858 264.574 433.705 264.948 435.514 265.301C435.339 265.738 435.164 266.195 434.989 266.632H374.309C377.064 262.66 380.114 258.933 383.43 255.487C384.15 254.717 384.889 253.99 385.648 253.241C393.383 245.767 402.265 239.774 411.903 235.525C427.088 228.739 443.693 226.413 460 228.788Z" fill="#F2F2F2"/>
<path d="M384.422 266.632H330.394C330.099 262.006 330.125 257.364 330.472 252.742C332.63 224.193 347.159 196.995 369.077 180.527C366.277 191.194 367.716 201.799 370.633 212.445C370.225 212.59 369.816 212.715 369.447 212.881C366.488 214.053 363.772 215.833 361.453 218.121C360.812 218.766 360.131 219.702 360.462 220.596C360.753 221.344 361.628 221.594 362.387 221.76C364.215 222.134 366.043 222.509 367.852 222.862C369.311 223.174 370.769 223.465 372.228 223.777C372.909 223.902 373.589 224.047 374.27 224.193C374.367 224.442 374.426 224.671 374.523 224.9C377.946 234.985 381.68 245.153 383.43 255.487C383.864 258.08 384.162 260.697 384.325 263.326C384.383 264.428 384.422 265.53 384.422 266.632Z" fill="#F2F2F2"/>
<path d="M89.962 235.525C90.1625 245.698 88.8495 255.84 86.0722 265.572C85.9749 265.925 85.8582 266.279 85.7415 266.632H28.4845C29.303 262.323 30.6024 258.134 32.3549 254.156C37.1198 243.344 44.8992 234.091 52.5815 224.9C63.1616 212.237 73.4889 199.678 75.1226 183.21C79.3163 190.045 82.6635 197.433 85.0803 205.188C82.1214 206.36 79.4058 208.14 77.0869 210.428C76.4451 211.073 75.7643 212.008 76.095 212.902C76.4062 213.651 77.2619 213.9 78.0204 214.067C79.8486 214.441 81.6768 214.815 83.505 215.169C84.9442 215.481 86.4028 215.772 87.8615 216.063C89.1435 222.463 89.8469 228.981 89.962 235.525Z" fill="#F2F2F2"/>
<path d="M138.059 228.788C128.879 234.756 123.044 243.988 118.279 254.322C114.133 255.333 110.305 257.483 107.174 260.56C106.513 261.205 105.832 262.141 106.182 263.035C106.474 263.783 107.349 264.033 108.108 264.199C109.916 264.574 111.764 264.948 113.573 265.301C113.398 265.738 113.223 266.195 113.048 266.632H52.3676C55.1222 262.66 58.1726 258.933 61.4891 255.487C62.2087 254.717 62.9477 253.99 63.7063 253.241C71.4414 245.767 80.3233 239.774 89.962 235.525C105.146 228.739 121.751 226.413 138.059 228.788Z" fill="#F2F2F2"/>
<path d="M62.4809 266.632H8.45239C8.15734 262.006 8.18337 257.364 8.53026 252.742C10.689 224.193 25.2172 196.995 47.1359 180.527C44.3353 191.194 45.7744 201.799 48.6918 212.445C48.2834 212.59 47.875 212.715 47.5054 212.881C44.5465 214.053 41.8309 215.833 39.512 218.121C38.8702 218.766 38.1895 219.702 38.5201 220.596C38.8118 221.344 39.687 221.594 40.4455 221.76C42.2737 222.134 44.1019 222.509 45.9106 222.862C47.3693 223.174 48.8279 223.465 50.2866 223.777C50.9672 223.902 51.648 224.047 52.3286 224.193C52.4258 224.442 52.4843 224.671 52.5815 224.9C56.0045 234.985 59.7386 245.153 61.489 255.487C61.9223 258.08 62.221 260.697 62.3837 263.326C62.442 264.428 62.4809 265.53 62.4809 266.632Z" fill="#F2F2F2"/>
<path d="M263.621 242.381L311.896 246.962L312.414 247.013V26.7816C312.241 26.6531 312.069 26.5245 311.896 26.396C301.835 18.8721 290.952 12.6911 279.488 7.99036L277.021 44.3659L276.796 47.6961L274.356 83.7699L273.603 94.867L263.71 241.095L263.621 242.381Z" fill="#E6E6E6"/>
<path d="M144.236 22.6803C143.891 22.915 143.546 23.1497 143.201 23.3955V247.013L144.236 246.912L191.989 242.381L191.9 241.095L182.007 94.867L181.254 83.7699L178.813 47.6961L178.589 44.3659L176.002 6.21912C164.845 10.3536 154.183 15.8787 144.236 22.6803Z" fill="#E6E6E6"/>
<path d="M143.201 23.3954C142.506 23.8759 141.811 24.3676 141.126 24.8649V250.063C141.126 255.69 144.246 260.406 148.417 261.608C149.099 261.805 149.802 261.904 150.508 261.904H305.625C306.329 261.905 307.031 261.805 307.71 261.608C309.26 261.148 310.665 260.248 311.776 259.004C313.895 256.583 315.052 253.378 315.006 250.063V28.7819C314.149 28.1058 313.287 27.4353 312.414 26.7815C312.241 26.653 312.069 26.5245 311.896 26.396V250.063C311.898 250.788 311.817 251.511 311.656 252.215C310.919 255.539 308.489 257.976 305.625 257.976H150.508C147.048 257.976 144.236 254.427 144.236 250.063V22.6802C143.891 22.9149 143.546 23.1495 143.201 23.3954Z" fill="#E6E6E6"/>
<path d="M313.451 44.368H142.68V47.6977H313.451V44.368Z" fill="#E6E6E6"/>
<path d="M261.149 1.89427C260.114 1.62047 259.079 1.36344 258.034 1.12317V91.5367H261.149V1.89427Z" fill="#E6E6E6"/>
<path d="M198.098 0C197.058 0.206743 196.018 0.419075 194.984 0.648168V91.5367H198.098V0Z" fill="#E6E6E6"/>
<path d="M109.199 256.076C109.198 257.987 109.54 259.88 110.207 261.652C110.464 262.34 110.769 263.005 111.122 263.641C111.577 264.472 112.106 265.254 112.7 265.977C114.013 267.577 115.631 268.858 117.444 269.736C119.257 270.614 121.225 271.068 123.216 271.067H327.727C331.444 271.067 335.01 269.489 337.638 266.678C340.267 263.868 341.744 260.056 341.744 256.081C341.744 252.107 340.267 248.295 337.638 245.485C335.01 242.674 331.444 241.095 327.727 241.095H123.216C119.5 241.099 115.938 242.679 113.31 245.487C110.682 248.295 109.204 252.103 109.199 256.076Z" fill="#E6E6E6"/>
<path d="M142.68 94.8682L312.413 94.8682V83.7692L142.68 83.7692V94.8682Z" fill="#E6E6E6"/>
<path d="M234.813 86.5439H220.28C220.28 84.925 220.881 83.3723 221.952 82.2275C223.023 81.0827 224.475 80.4396 225.989 80.4395H229.104C229.853 80.4395 230.596 80.5974 231.289 80.9042C231.981 81.211 232.611 81.6606 233.141 82.2275C233.671 82.7943 234.092 83.4673 234.379 84.2079C234.666 84.9485 234.813 85.7423 234.813 86.5439H234.813Z" fill="#E6E6E6"/>
<path d="M0 264.636C4.54024 270.388 9.45101 275.793 14.6964 280.812H436.241C441.486 275.793 446.397 270.388 450.938 264.636H0Z" fill="#3F3D56"/>
<path d="M207.323 210.542V267.849H244.874V210.542C244.875 210.13 244.752 209.729 244.523 209.397C244.295 209.065 243.972 208.82 243.604 208.698C243.43 208.637 243.249 208.607 243.066 208.609H209.136C208.899 208.608 208.663 208.658 208.443 208.755C208.223 208.852 208.023 208.994 207.855 209.174C207.686 209.353 207.553 209.567 207.462 209.801C207.37 210.036 207.323 210.288 207.323 210.542ZM221.978 230.233C221.987 229.103 222.414 228.024 223.165 227.229C223.916 226.434 224.929 225.987 225.986 225.987C227.043 225.987 228.057 226.434 228.807 227.229C229.558 228.024 229.985 229.103 229.995 230.233V236.882C229.989 238.015 229.565 239.1 228.813 239.899C228.062 240.698 227.046 241.146 225.986 241.146C224.927 241.146 223.91 240.698 223.159 239.899C222.408 239.1 221.983 238.015 221.978 236.882V230.233Z" fill="#2F2E41"/>
<path d="M207.208 266.016V271.542C207.209 271.829 207.315 272.103 207.504 272.306C207.693 272.509 207.949 272.624 208.217 272.626H243.98C244.248 272.625 244.505 272.51 244.694 272.307C244.883 272.104 244.989 271.829 244.989 271.542V266.016H207.208Z" fill="#3F3D56"/>
<path d="M148.25 124.202V228.836C148.251 230.17 148.747 231.448 149.629 232.391C150.51 233.334 151.706 233.864 152.954 233.865H297.984C299.231 233.864 300.427 233.334 301.309 232.391C302.191 231.448 302.687 230.17 302.688 228.836V124.202C302.685 122.87 302.188 121.593 301.306 120.652C300.425 119.71 299.23 119.18 297.984 119.179H152.954C151.707 119.18 150.513 119.71 149.631 120.652C148.749 121.593 148.253 122.87 148.25 124.202Z" fill="#3F3D56"/>
<path d="M151.652 125.504V227.545C151.653 228.258 151.919 228.941 152.39 229.444C152.861 229.948 153.5 230.232 154.166 230.233H296.777C297.443 230.232 298.082 229.948 298.553 229.444C299.024 228.941 299.289 228.258 299.291 227.545V125.504C299.29 124.791 299.026 124.106 298.554 123.602C298.083 123.097 297.444 122.812 296.777 122.811H154.166C153.499 122.812 152.859 123.097 152.388 123.602C151.917 124.106 151.652 124.791 151.652 125.504Z" fill="#6C63FF"/>
<path d="M180.731 273.928C180.877 274.123 181.061 274.28 181.271 274.387C181.481 274.495 181.711 274.55 181.944 274.549H266.788C267.02 274.548 267.249 274.493 267.459 274.386C267.668 274.279 267.852 274.124 267.999 273.931C268.145 273.738 268.249 273.513 268.304 273.272C268.358 273.031 268.362 272.78 268.314 272.537L266.997 265.849C266.943 265.576 266.825 265.322 266.655 265.11C266.485 264.898 266.269 264.735 266.025 264.636C265.849 264.562 265.661 264.524 265.471 264.524H183.256C183.066 264.524 182.878 264.562 182.702 264.636C182.458 264.735 182.241 264.898 182.072 265.11C181.902 265.322 181.784 265.576 181.73 265.849L180.413 272.537C180.366 272.78 180.37 273.03 180.425 273.271C180.48 273.512 180.585 273.736 180.731 273.928Z" fill="#2F2E41"/>
<path d="M262.51 267.405H264.613C264.754 267.405 264.868 267.283 264.868 267.132V266.002C264.868 265.851 264.754 265.729 264.613 265.729H262.51C262.369 265.729 262.255 265.851 262.255 266.002V267.132C262.255 267.283 262.369 267.405 262.51 267.405Z" fill="#3F3D56"/>
<path d="M257.284 267.405H259.387C259.528 267.405 259.642 267.283 259.642 267.132V266.002C259.642 265.851 259.528 265.729 259.387 265.729H257.284C257.143 265.729 257.029 265.851 257.029 266.002V267.132C257.029 267.283 257.143 267.405 257.284 267.405Z" fill="#3F3D56"/>
<path d="M252.058 267.405H254.161C254.302 267.405 254.416 267.283 254.416 267.132V266.002C254.416 265.851 254.302 265.729 254.161 265.729H252.058C251.917 265.729 251.803 265.851 251.803 266.002V267.132C251.803 267.283 251.917 267.405 252.058 267.405Z" fill="#3F3D56"/>
<path d="M246.831 267.405H248.934C249.075 267.405 249.189 267.283 249.189 267.132V266.002C249.189 265.851 249.075 265.729 248.934 265.729H246.831C246.691 265.729 246.576 265.851 246.576 266.002V267.132C246.576 267.283 246.691 267.405 246.831 267.405Z" fill="#3F3D56"/>
<path d="M241.605 267.405H243.708C243.849 267.405 243.963 267.283 243.963 267.132V266.002C243.963 265.851 243.849 265.729 243.708 265.729H241.605C241.464 265.729 241.35 265.851 241.35 266.002V267.132C241.35 267.283 241.464 267.405 241.605 267.405Z" fill="#3F3D56"/>
<path d="M236.379 267.405H238.482C238.623 267.405 238.737 267.283 238.737 267.132V266.002C238.737 265.851 238.623 265.729 238.482 265.729H236.379C236.238 265.729 236.124 265.851 236.124 266.002V267.132C236.124 267.283 236.238 267.405 236.379 267.405Z" fill="#3F3D56"/>
<path d="M231.152 267.405H233.255C233.396 267.405 233.51 267.283 233.51 267.132V266.002C233.51 265.851 233.396 265.729 233.255 265.729H231.152C231.012 265.729 230.897 265.851 230.897 266.002V267.132C230.897 267.283 231.012 267.405 231.152 267.405Z" fill="#3F3D56"/>
<path d="M225.926 267.405H228.029C228.17 267.405 228.284 267.283 228.284 267.132V266.002C228.284 265.851 228.17 265.729 228.029 265.729H225.926C225.785 265.729 225.671 265.851 225.671 266.002V267.132C225.671 267.283 225.785 267.405 225.926 267.405Z" fill="#3F3D56"/>
<path d="M220.7 267.405H222.803C222.944 267.405 223.058 267.283 223.058 267.132V266.002C223.058 265.851 222.944 265.729 222.803 265.729H220.7C220.559 265.729 220.445 265.851 220.445 266.002V267.132C220.445 267.283 220.559 267.405 220.7 267.405Z" fill="#3F3D56"/>
<path d="M215.474 267.405H217.576C217.717 267.405 217.832 267.283 217.832 267.132V266.002C217.832 265.851 217.717 265.729 217.576 265.729H215.474C215.333 265.729 215.218 265.851 215.218 266.002V267.132C215.218 267.283 215.333 267.405 215.474 267.405Z" fill="#3F3D56"/>
<path d="M210.247 267.405H212.35C212.491 267.405 212.605 267.283 212.605 267.132V266.002C212.605 265.851 212.491 265.729 212.35 265.729H210.247C210.106 265.729 209.992 265.851 209.992 266.002V267.132C209.992 267.283 210.106 267.405 210.247 267.405Z" fill="#3F3D56"/>
<path d="M205.021 267.405H207.124C207.265 267.405 207.379 267.283 207.379 267.132V266.002C207.379 265.851 207.265 265.729 207.124 265.729H205.021C204.88 265.729 204.766 265.851 204.766 266.002V267.132C204.766 267.283 204.88 267.405 205.021 267.405Z" fill="#3F3D56"/>
<path d="M199.794 267.405H201.897C202.038 267.405 202.153 267.283 202.153 267.132V266.002C202.153 265.851 202.038 265.729 201.897 265.729H199.794C199.654 265.729 199.539 265.851 199.539 266.002V267.132C199.539 267.283 199.654 267.405 199.794 267.405Z" fill="#3F3D56"/>
<path d="M194.568 267.405H196.671C196.812 267.405 196.926 267.283 196.926 267.132V266.002C196.926 265.851 196.812 265.729 196.671 265.729H194.568C194.427 265.729 194.313 265.851 194.313 266.002V267.132C194.313 267.283 194.427 267.405 194.568 267.405Z" fill="#3F3D56"/>
<path d="M189.342 267.405H191.445C191.586 267.405 191.7 267.283 191.7 267.132V266.002C191.7 265.851 191.586 265.729 191.445 265.729H189.342C189.201 265.729 189.087 265.851 189.087 266.002V267.132C189.087 267.283 189.201 267.405 189.342 267.405Z" fill="#3F3D56"/>
<path d="M184.116 267.405H186.218C186.359 267.405 186.474 267.283 186.474 267.132V266.002C186.474 265.851 186.359 265.729 186.218 265.729H184.116C183.975 265.729 183.86 265.851 183.86 266.002V267.132C183.86 267.283 183.975 267.405 184.116 267.405Z" fill="#3F3D56"/>
<path d="M262.572 270.199H264.675C264.816 270.199 264.93 270.077 264.93 269.926V268.795C264.93 268.645 264.816 268.523 264.675 268.523H262.572C262.431 268.523 262.317 268.645 262.317 268.795V269.926C262.317 270.077 262.431 270.199 262.572 270.199Z" fill="#3F3D56"/>
<path d="M257.346 270.199H259.449C259.59 270.199 259.704 270.077 259.704 269.926V268.795C259.704 268.645 259.59 268.523 259.449 268.523H257.346C257.205 268.523 257.091 268.645 257.091 268.795V269.926C257.091 270.077 257.205 270.199 257.346 270.199Z" fill="#3F3D56"/>
<path d="M252.12 270.199H254.222C254.363 270.199 254.478 270.077 254.478 269.926V268.795C254.478 268.645 254.363 268.523 254.222 268.523H252.12C251.979 268.523 251.864 268.645 251.864 268.795V269.926C251.864 270.077 251.979 270.199 252.12 270.199Z" fill="#3F3D56"/>
<path d="M246.893 270.199H248.996C249.137 270.199 249.251 270.077 249.251 269.926V268.795C249.251 268.645 249.137 268.523 248.996 268.523H246.893C246.752 268.523 246.638 268.645 246.638 268.795V269.926C246.638 270.077 246.752 270.199 246.893 270.199Z" fill="#3F3D56"/>
<path d="M241.667 270.199H243.77C243.911 270.199 244.025 270.077 244.025 269.926V268.795C244.025 268.645 243.911 268.523 243.77 268.523H241.667C241.526 268.523 241.412 268.645 241.412 268.795V269.926C241.412 270.077 241.526 270.199 241.667 270.199Z" fill="#3F3D56"/>
<path d="M236.441 270.199H238.543C238.684 270.199 238.799 270.077 238.799 269.926V268.795C238.799 268.645 238.684 268.523 238.543 268.523H236.441C236.3 268.523 236.185 268.645 236.185 268.795V269.926C236.185 270.077 236.3 270.199 236.441 270.199Z" fill="#3F3D56"/>
<path d="M231.214 270.199H233.317C233.458 270.199 233.572 270.077 233.572 269.926V268.795C233.572 268.645 233.458 268.523 233.317 268.523H231.214C231.073 268.523 230.959 268.645 230.959 268.795V269.926C230.959 270.077 231.073 270.199 231.214 270.199Z" fill="#3F3D56"/>
<path d="M225.988 270.199H228.091C228.232 270.199 228.346 270.077 228.346 269.926V268.795C228.346 268.645 228.232 268.523 228.091 268.523H225.988C225.847 268.523 225.733 268.645 225.733 268.795V269.926C225.733 270.077 225.847 270.199 225.988 270.199Z" fill="#3F3D56"/>
<path d="M220.762 270.199H222.864C223.005 270.199 223.12 270.077 223.12 269.926V268.795C223.12 268.645 223.005 268.523 222.864 268.523H220.762C220.621 268.523 220.506 268.645 220.506 268.795V269.926C220.506 270.077 220.621 270.199 220.762 270.199Z" fill="#3F3D56"/>
<path d="M215.535 270.199H217.638C217.779 270.199 217.893 270.077 217.893 269.926V268.795C217.893 268.645 217.779 268.523 217.638 268.523H215.535C215.394 268.523 215.28 268.645 215.28 268.795V269.926C215.28 270.077 215.394 270.199 215.535 270.199Z" fill="#3F3D56"/>
<path d="M210.309 270.199H212.412C212.553 270.199 212.667 270.077 212.667 269.926V268.795C212.667 268.645 212.553 268.523 212.412 268.523H210.309C210.168 268.523 210.054 268.645 210.054 268.795V269.926C210.054 270.077 210.168 270.199 210.309 270.199Z" fill="#3F3D56"/>
<path d="M205.083 270.199H207.185C207.326 270.199 207.441 270.077 207.441 269.926V268.795C207.441 268.645 207.326 268.523 207.185 268.523H205.083C204.942 268.523 204.827 268.645 204.827 268.795V269.926C204.827 270.077 204.942 270.199 205.083 270.199Z" fill="#3F3D56"/>
<path d="M199.856 270.199H201.959C202.1 270.199 202.214 270.077 202.214 269.926V268.795C202.214 268.645 202.1 268.523 201.959 268.523H199.856C199.715 268.523 199.601 268.645 199.601 268.795V269.926C199.601 270.077 199.715 270.199 199.856 270.199Z" fill="#3F3D56"/>
<path d="M194.63 270.199H196.733C196.874 270.199 196.988 270.077 196.988 269.926V268.795C196.988 268.645 196.874 268.523 196.733 268.523H194.63C194.489 268.523 194.375 268.645 194.375 268.795V269.926C194.375 270.077 194.489 270.199 194.63 270.199Z" fill="#3F3D56"/>
<path d="M189.404 270.199H191.507C191.647 270.199 191.762 270.077 191.762 269.926V268.795C191.762 268.645 191.647 268.523 191.507 268.523H189.404C189.263 268.523 189.149 268.645 189.149 268.795V269.926C189.149 270.077 189.263 270.199 189.404 270.199Z" fill="#3F3D56"/>
<path d="M184.177 270.199H186.28C186.421 270.199 186.535 270.077 186.535 269.926V268.795C186.535 268.645 186.421 268.523 186.28 268.523H184.177C184.036 268.523 183.922 268.645 183.922 268.795V269.926C183.922 270.077 184.036 270.199 184.177 270.199Z" fill="#3F3D56"/>
<path d="M219.194 273.552H239.589C239.73 273.552 239.844 273.429 239.844 273.279V272.148C239.844 271.997 239.73 271.875 239.589 271.875H219.194C219.053 271.875 218.939 271.997 218.939 272.148V273.279C218.939 273.429 219.053 273.552 219.194 273.552Z" fill="#3F3D56"/>
<path d="M161.332 136.867H294.773C294.911 136.864 295.043 136.803 295.14 136.697C295.237 136.591 295.292 136.448 295.292 136.3C295.292 136.152 295.237 136.009 295.14 135.903C295.043 135.797 294.911 135.736 294.773 135.733H161.332C161.194 135.736 161.062 135.797 160.965 135.903C160.868 136.009 160.813 136.152 160.813 136.3C160.813 136.448 160.868 136.591 160.965 136.697C161.062 136.803 161.194 136.864 161.332 136.867Z" fill="#3F3D56"/>
<path d="M285.689 132.836C287.407 132.836 288.799 131.314 288.799 129.437C288.799 127.56 287.407 126.038 285.689 126.038C283.972 126.038 282.579 127.56 282.579 129.437C282.579 131.314 283.972 132.836 285.689 132.836Z" fill="#3F3D56"/>
<path d="M274.946 132.836C276.663 132.836 278.056 131.314 278.056 129.437C278.056 127.56 276.663 126.038 274.946 126.038C273.228 126.038 271.836 127.56 271.836 129.437C271.836 131.314 273.228 132.836 274.946 132.836Z" fill="#3F3D56"/>
<path d="M264.203 132.836C265.92 132.836 267.312 131.314 267.312 129.437C267.312 127.56 265.92 126.038 264.203 126.038C262.485 126.038 261.093 127.56 261.093 129.437C261.093 131.314 262.485 132.836 264.203 132.836Z" fill="#3F3D56"/>
<path d="M167.232 127.499C167.231 127.579 167.246 127.659 167.274 127.733C167.303 127.807 167.345 127.875 167.398 127.932C167.45 127.989 167.513 128.035 167.583 128.066C167.652 128.097 167.726 128.113 167.801 128.113H175.432C175.583 128.11 175.726 128.043 175.832 127.927C175.937 127.812 175.996 127.657 175.996 127.496C175.996 127.335 175.937 127.18 175.832 127.064C175.726 126.949 175.583 126.882 175.432 126.878H167.801C167.649 126.88 167.504 126.947 167.397 127.063C167.29 127.179 167.231 127.336 167.232 127.499Z" fill="#3F3D56"/>
<path d="M167.232 129.818C167.231 129.898 167.246 129.978 167.274 130.052C167.303 130.126 167.345 130.194 167.398 130.251C167.45 130.308 167.513 130.354 167.583 130.385C167.652 130.416 167.726 130.432 167.801 130.432H175.432C175.583 130.429 175.727 130.362 175.832 130.247C175.938 130.131 175.997 129.976 175.997 129.815C175.997 129.653 175.938 129.498 175.832 129.383C175.727 129.268 175.583 129.201 175.432 129.197H167.801C167.649 129.199 167.504 129.266 167.397 129.382C167.29 129.498 167.231 129.655 167.232 129.818Z" fill="#3F3D56"/>
<path d="M167.232 132.131C167.231 132.294 167.29 132.45 167.397 132.567C167.504 132.683 167.649 132.749 167.801 132.751H175.432C175.583 132.747 175.726 132.681 175.832 132.565C175.937 132.45 175.996 132.295 175.996 132.134C175.996 131.972 175.937 131.817 175.832 131.702C175.726 131.587 175.583 131.52 175.432 131.516H167.801C167.726 131.517 167.652 131.533 167.583 131.564C167.513 131.595 167.45 131.64 167.398 131.697C167.345 131.754 167.303 131.822 167.274 131.896C167.246 131.971 167.231 132.051 167.232 132.131Z" fill="#3F3D56"/>
<path d="M169.59 150.052H166.848C166.017 150.052 165.343 150.773 165.343 151.661C165.343 152.55 166.017 153.271 166.848 153.271H169.59C170.421 153.271 171.095 152.55 171.095 151.661C171.095 150.773 170.421 150.052 169.59 150.052Z" fill="#E6E6E6"/>
<path d="M200.948 150.052H198.206C197.375 150.052 196.701 150.773 196.701 151.661C196.701 152.55 197.375 153.271 198.206 153.271H200.948C201.779 153.271 202.453 152.55 202.453 151.661C202.453 150.773 201.779 150.052 200.948 150.052Z" fill="#E6E6E6"/>
<path d="M209.833 150.052H207.091C206.26 150.052 205.586 150.773 205.586 151.661C205.586 152.55 206.26 153.271 207.091 153.271H209.833C210.664 153.271 211.338 152.55 211.338 151.661C211.338 150.773 210.664 150.052 209.833 150.052Z" fill="#E6E6E6"/>
<path d="M192.418 149.784H175.378C174.546 149.784 173.872 150.504 173.872 151.393C173.872 152.282 174.546 153.002 175.378 153.002H192.418C193.25 153.002 193.924 152.282 193.924 151.393C193.924 150.504 193.25 149.784 192.418 149.784Z" fill="#E6E6E6"/>
<path d="M234.229 149.784H217.188C216.357 149.784 215.683 150.504 215.683 151.393C215.683 152.282 216.357 153.002 217.188 153.002H234.229C235.06 153.002 235.734 152.282 235.734 151.393C235.734 150.504 235.06 149.784 234.229 149.784Z" fill="#E6E6E6"/>
<path d="M177.952 157.316H175.21C174.379 157.316 173.705 158.037 173.705 158.925C173.705 159.814 174.379 160.535 175.21 160.535H177.952C178.783 160.535 179.457 159.814 179.457 158.925C179.457 158.037 178.783 157.316 177.952 157.316Z" fill="#E6E6E6"/>
<path d="M209.31 157.316H206.568C205.737 157.316 205.063 158.037 205.063 158.925C205.063 159.814 205.737 160.535 206.568 160.535H209.31C210.141 160.535 210.815 159.814 210.815 158.925C210.815 158.037 210.141 157.316 209.31 157.316Z" fill="#E6E6E6"/>
<path d="M218.195 157.316H215.453C214.622 157.316 213.948 158.037 213.948 158.925C213.948 159.814 214.622 160.535 215.453 160.535H218.195C219.026 160.535 219.7 159.814 219.7 158.925C219.7 158.037 219.026 157.316 218.195 157.316Z" fill="#E6E6E6"/>
<path d="M200.781 157.048H183.74C182.908 157.048 182.235 157.768 182.235 158.657C182.235 159.546 182.908 160.266 183.74 160.266H200.781C201.612 160.266 202.286 159.546 202.286 158.657C202.286 157.768 201.612 157.048 200.781 157.048Z" fill="#E6E6E6"/>
<path d="M242.591 157.048H225.55C224.719 157.048 224.045 157.768 224.045 158.657C224.045 159.546 224.719 160.266 225.55 160.266H242.591C243.422 160.266 244.096 159.546 244.096 158.657C244.096 157.768 243.422 157.048 242.591 157.048Z" fill="#E6E6E6"/>
<path d="M186.314 164.58H183.572C182.741 164.58 182.067 165.301 182.067 166.189C182.067 167.078 182.741 167.799 183.572 167.799H186.314C187.146 167.799 187.819 167.078 187.819 166.189C187.819 165.301 187.146 164.58 186.314 164.58Z" fill="#E6E6E6"/>
<path d="M217.672 164.58H214.93C214.099 164.58 213.425 165.301 213.425 166.189C213.425 167.078 214.099 167.799 214.93 167.799H217.672C218.503 167.799 219.177 167.078 219.177 166.189C219.177 165.301 218.503 164.58 217.672 164.58Z" fill="#E6E6E6"/>
<path d="M226.557 164.58H223.815C222.984 164.58 222.31 165.301 222.31 166.189C222.31 167.078 222.984 167.799 223.815 167.799H226.557C227.388 167.799 228.062 167.078 228.062 166.189C228.062 165.301 227.388 164.58 226.557 164.58Z" fill="#E6E6E6"/>
<path d="M209.143 164.312H192.102C191.271 164.312 190.597 165.032 190.597 165.921C190.597 166.81 191.271 167.53 192.102 167.53H209.143C209.974 167.53 210.648 166.81 210.648 165.921C210.648 165.032 209.974 164.312 209.143 164.312Z" fill="#E6E6E6"/>
<path d="M250.953 164.312H233.912C233.081 164.312 232.407 165.032 232.407 165.921C232.407 166.81 233.081 167.53 233.912 167.53H250.953C251.785 167.53 252.458 166.81 252.458 165.921C252.458 165.032 251.785 164.312 250.953 164.312Z" fill="#E6E6E6"/>
<path d="M194.676 171.844H191.935C191.103 171.844 190.429 172.564 190.429 173.453C190.429 174.342 191.103 175.062 191.935 175.062H194.676C195.508 175.062 196.182 174.342 196.182 173.453C196.182 172.564 195.508 171.844 194.676 171.844Z" fill="#E6E6E6"/>
<path d="M226.034 171.844H223.292C222.461 171.844 221.787 172.564 221.787 173.453C221.787 174.342 222.461 175.062 223.292 175.062H226.034C226.866 175.062 227.539 174.342 227.539 173.453C227.539 172.564 226.866 171.844 226.034 171.844Z" fill="#E6E6E6"/>
<path d="M234.919 171.844H232.177C231.346 171.844 230.672 172.564 230.672 173.453C230.672 174.342 231.346 175.062 232.177 175.062H234.919C235.75 175.062 236.424 174.342 236.424 173.453C236.424 172.564 235.75 171.844 234.919 171.844Z" fill="#E6E6E6"/>
<path d="M217.505 171.576H200.464C199.633 171.576 198.959 172.296 198.959 173.185C198.959 174.074 199.633 174.794 200.464 174.794H217.505C218.336 174.794 219.01 174.074 219.01 173.185C219.01 172.296 218.336 171.576 217.505 171.576Z" fill="#E6E6E6"/>
<path d="M200.948 200.729H198.206C197.375 200.729 196.701 201.449 196.701 202.338C196.701 203.226 197.375 203.947 198.206 203.947H200.948C201.779 203.947 202.453 203.226 202.453 202.338C202.453 201.449 201.779 200.729 200.948 200.729Z" fill="#E6E6E6"/>
<path d="M209.833 200.729H207.091C206.26 200.729 205.586 201.449 205.586 202.338C205.586 203.226 206.26 203.947 207.091 203.947H209.833C210.664 203.947 211.338 203.226 211.338 202.338C211.338 201.449 210.664 200.729 209.833 200.729Z" fill="#E6E6E6"/>
<path d="M234.229 200.997H217.188C216.357 200.997 215.683 201.717 215.683 202.606C215.683 203.495 216.357 204.215 217.188 204.215H234.229C235.06 204.215 235.734 203.495 235.734 202.606C235.734 201.717 235.06 200.997 234.229 200.997Z" fill="#E6E6E6"/>
<path d="M169.59 200.729H166.848C166.017 200.729 165.343 201.449 165.343 202.338C165.343 203.226 166.017 203.947 166.848 203.947H169.59C170.421 203.947 171.095 203.226 171.095 202.338C171.095 201.449 170.421 200.729 169.59 200.729Z" fill="#E6E6E6"/>
<path d="M192.418 200.997H175.378C174.546 200.997 173.872 201.717 173.872 202.606C173.872 203.495 174.546 204.215 175.378 204.215H192.418C193.25 204.215 193.924 203.495 193.924 202.606C193.924 201.717 193.25 200.997 192.418 200.997Z" fill="#E6E6E6"/>
<path d="M177.952 193.465H175.21C174.379 193.465 173.705 194.185 173.705 195.074C173.705 195.963 174.379 196.683 175.21 196.683H177.952C178.783 196.683 179.457 195.963 179.457 195.074C179.457 194.185 178.783 193.465 177.952 193.465Z" fill="#E6E6E6"/>
<path d="M209.31 193.465H206.568C205.737 193.465 205.063 194.185 205.063 195.074C205.063 195.963 205.737 196.683 206.568 196.683H209.31C210.141 196.683 210.815 195.963 210.815 195.074C210.815 194.185 210.141 193.465 209.31 193.465Z" fill="#E6E6E6"/>
<path d="M218.195 193.465H215.453C214.622 193.465 213.948 194.185 213.948 195.074C213.948 195.963 214.622 196.683 215.453 196.683H218.195C219.026 196.683 219.7 195.963 219.7 195.074C219.7 194.185 219.026 193.465 218.195 193.465Z" fill="#E6E6E6"/>
<path d="M200.781 193.733H183.74C182.908 193.733 182.235 194.453 182.235 195.342C182.235 196.231 182.908 196.951 183.74 196.951H200.781C201.612 196.951 202.286 196.231 202.286 195.342C202.286 194.453 201.612 193.733 200.781 193.733Z" fill="#E6E6E6"/>
<path d="M186.314 186.201H183.572C182.741 186.201 182.067 186.921 182.067 187.81C182.067 188.699 182.741 189.419 183.572 189.419H186.314C187.146 189.419 187.819 188.699 187.819 187.81C187.819 186.921 187.146 186.201 186.314 186.201Z" fill="#E6E6E6"/>
<path d="M217.672 186.201H214.93C214.099 186.201 213.425 186.921 213.425 187.81C213.425 188.699 214.099 189.419 214.93 189.419H217.672C218.503 189.419 219.177 188.699 219.177 187.81C219.177 186.921 218.503 186.201 217.672 186.201Z" fill="#E6E6E6"/>
<path d="M226.557 186.201H223.815C222.984 186.201 222.31 186.921 222.31 187.81C222.31 188.699 222.984 189.419 223.815 189.419H226.557C227.388 189.419 228.062 188.699 228.062 187.81C228.062 186.921 227.388 186.201 226.557 186.201Z" fill="#E6E6E6"/>
<path d="M209.143 186.469H192.102C191.271 186.469 190.597 187.189 190.597 188.078C190.597 188.967 191.271 189.687 192.102 189.687H209.143C209.974 189.687 210.648 188.967 210.648 188.078C210.648 187.189 209.974 186.469 209.143 186.469Z" fill="#E6E6E6"/>
<path d="M194.676 178.937H191.935C191.103 178.937 190.429 179.657 190.429 180.546C190.429 181.435 191.103 182.155 191.935 182.155H194.676C195.508 182.155 196.182 181.435 196.182 180.546C196.182 179.657 195.508 178.937 194.676 178.937Z" fill="#E6E6E6"/>
<path d="M226.034 178.937H223.292C222.461 178.937 221.787 179.657 221.787 180.546C221.787 181.435 222.461 182.155 223.292 182.155H226.034C226.866 182.155 227.539 181.435 227.539 180.546C227.539 179.657 226.866 178.937 226.034 178.937Z" fill="#E6E6E6"/>
<path d="M234.919 178.937H232.177C231.346 178.937 230.672 179.657 230.672 180.546C230.672 181.435 231.346 182.155 232.177 182.155H234.919C235.75 182.155 236.424 181.435 236.424 180.546C236.424 179.657 235.75 178.937 234.919 178.937Z" fill="#E6E6E6"/>
<path d="M217.505 179.205H200.464C199.633 179.205 198.959 179.926 198.959 180.814C198.959 181.703 199.633 182.424 200.464 182.424H217.505C218.336 182.424 219.01 181.703 219.01 180.814C219.01 179.926 218.336 179.205 217.505 179.205Z" fill="#E6E6E6"/>
<path d="M182.875 305.058C182.76 305.12 182.645 305.181 182.53 305.237C181.804 305.623 181.072 306.003 180.335 306.377C178.13 307.5 175.896 308.567 173.635 309.579C167.685 312.239 161.58 314.485 155.359 316.301C154.313 309.333 153.299 292.9 152.327 280.814C152.144 278.539 151.962 276.422 151.779 274.55C151.605 272.092 151.275 269.651 150.791 267.241C150.743 267.052 150.675 266.87 150.587 266.699C150.686 267.666 150.791 270.549 150.89 274.55C150.942 276.422 150.989 278.539 151.042 280.814C151.287 292.447 151.543 308.277 151.8 317.29C151.073 317.48 150.341 317.67 149.61 317.848C149.15 317.966 148.685 318.077 148.219 318.184C147.655 318.318 147.091 318.452 146.526 318.575C145.936 318.709 145.345 318.837 144.754 318.96C135.104 320.987 125.291 322.005 115.456 322C114.802 322 114.154 321.994 113.501 321.989C113.302 321.989 113.104 321.983 112.9 321.978C112.325 321.966 111.729 321.955 111.123 321.939C99.5002 321.595 87.9535 319.816 76.713 316.636L77.1676 280.813L77.246 274.55L77.2774 272.175C77.0185 272.939 76.8636 273.739 76.8175 274.55C76.6346 276.075 76.4464 278.238 76.2583 280.813C75.5423 290.737 74.8053 306.746 74.0423 315.854C65.006 313.104 58.3999 310.596 50.1423 306.181C49.8235 306.014 49.4995 305.841 49.1807 305.667C49.2382 305.237 49.3009 304.807 49.3584 304.365C50.2939 297.414 49.1912 288.368 50.226 280.813C51.0151 274.986 51.8304 269.387 52.651 264.637C53.644 258.921 54.6526 254.429 55.6509 252.244C56.8007 249.724 57.9505 247.243 59.0637 244.868C59.5445 243.846 60.0166 242.842 60.48 241.857C60.7309 241.326 60.9817 240.8 61.2274 240.286C62.3458 237.945 63.4015 235.783 64.3684 233.866C65.0478 232.52 65.675 231.301 66.2499 230.234C66.9241 228.977 67.5199 227.938 68.0111 227.15C71.6398 221.269 77.0389 216.891 83.3138 214.74L83.4706 214.695L83.6222 214.762L83.7946 214.846L93.756 210.951L98.2036 199.502L121.048 197.999L124.738 201L126.624 202.536L128.636 204.173L132.337 207.185L133.387 207.532L134.95 208.046L145.638 211.555L145.747 211.504L145.904 211.549C151.614 213.503 156.613 217.312 160.203 222.445C160.559 222.937 160.888 223.445 161.207 223.959C162.074 225.334 163.245 227.507 164.625 230.234C165.195 231.357 165.796 232.575 166.428 233.866C166.809 234.643 170.102 245.628 173.306 256.848C176.3 267.353 179.217 278.064 179.598 280.813C179.666 281.322 179.739 281.836 179.807 282.345C180.241 285.524 180.67 288.726 181.083 291.849C181.694 296.481 182.29 300.951 182.86 304.947C182.865 304.986 182.87 305.019 182.875 305.058Z" fill="#3F3D56"/>
<path opacity="0.2" d="M158.666 264.612L154.225 246.289L150.304 262.099L158.666 264.612Z" fill="black"/>
<path d="M8.27292 264.399C8.50317 265.116 8.93996 265.736 9.52055 266.171C10.1011 266.606 10.7957 266.833 11.5044 266.819L25.3499 266.438C26.0638 266.423 26.7541 266.162 27.3175 265.693C27.8809 265.224 28.2872 264.572 28.4757 263.836L30.435 241.437C31.1301 241.773 31.8868 241.94 32.6498 241.923C33.9886 241.887 35.2591 241.284 36.182 240.247C37.1049 239.209 37.6045 237.822 37.5709 236.391C37.5372 234.96 36.9732 233.601 36.0028 232.615C35.0324 231.628 33.7352 231.094 32.3964 231.13C32.0915 231.129 31.7873 231.163 31.489 231.231C31.1647 230.856 30.7705 230.557 30.3317 230.355C29.893 230.152 29.4195 230.05 28.9417 230.056L7.64416 230.644C7.46749 230.651 7.29171 230.674 7.11881 230.713C6.65176 230.806 6.20878 231.005 5.81968 231.297C5.43058 231.588 5.10439 231.966 4.86308 232.403C4.62177 232.841 4.47093 233.328 4.4207 233.833C4.37048 234.339 4.42205 234.849 4.57194 235.331L8.27292 264.399ZM30.8367 239.916L32.2309 234.578C32.3895 233.961 32.3932 233.311 32.2416 232.692C32.3092 232.692 32.3689 232.658 32.4366 232.658C33.3925 232.637 34.3173 233.022 35.0081 233.728C35.699 234.435 36.0995 235.406 36.1219 236.428C36.1443 237.45 35.7867 238.44 35.1276 239.18C34.4684 239.921 33.5615 240.352 32.6057 240.378C31.9877 240.399 31.3761 240.239 30.8367 239.916Z" fill="#2F2E41"/>
<path d="M7.1188 230.713C7.57254 233.487 12.6739 235.437 18.8079 235.098C24.4485 234.82 29.0606 232.703 29.9056 230.193C29.5929 230.094 29.2677 230.048 28.9417 230.056L7.64415 230.643C7.46748 230.65 7.29171 230.674 7.1188 230.713Z" fill="#3F3D56"/>
<path d="M19.9321 252.09C19.9601 252.083 19.9868 252.07 20.011 252.053L23.0178 249.949C23.0541 249.924 23.084 249.889 23.1046 249.848C23.1253 249.808 23.1362 249.762 23.1362 249.716C23.1362 249.669 23.1254 249.624 23.1047 249.583C23.0841 249.542 23.0543 249.507 23.0179 249.482L19.8927 247.293C19.864 247.273 19.8319 247.259 19.7981 247.252C19.7643 247.245 19.7296 247.245 19.6959 247.253C19.6622 247.26 19.6302 247.275 19.6018 247.295C19.5733 247.316 19.549 247.342 19.5301 247.373C19.5113 247.404 19.4983 247.438 19.4919 247.475C19.4855 247.511 19.4859 247.548 19.493 247.584C19.5001 247.62 19.5137 247.654 19.5332 247.684C19.5526 247.715 19.5775 247.74 19.6063 247.76L22.3977 249.715L19.7249 251.586C19.6732 251.622 19.6351 251.677 19.6175 251.74C19.5998 251.803 19.6038 251.871 19.6287 251.932C19.6535 251.992 19.6976 252.042 19.7532 252.071C19.8088 252.1 19.8721 252.107 19.9321 252.09H19.9321Z" fill="#6C63FF"/>
<path d="M15.1831 252.325C15.2335 252.311 15.279 252.281 15.3137 252.24C15.3484 252.198 15.3708 252.147 15.3778 252.092C15.3849 252.037 15.3764 251.98 15.3535 251.931C15.3305 251.881 15.2941 251.839 15.249 251.811L12.4774 250.113L15.1562 247.985C15.1837 247.963 15.207 247.936 15.2246 247.904C15.2422 247.873 15.2538 247.838 15.2588 247.802C15.2638 247.766 15.2621 247.729 15.2537 247.693C15.2454 247.657 15.2305 247.624 15.2101 247.595C15.1896 247.565 15.164 247.54 15.1345 247.522C15.1051 247.503 15.0725 247.49 15.0386 247.485C15.0046 247.48 14.9701 247.481 14.9368 247.49C14.9035 247.499 14.8723 247.515 14.8447 247.537L11.8455 249.919C11.8107 249.946 11.7828 249.983 11.7645 250.025C11.7461 250.067 11.7378 250.113 11.7404 250.16C11.7429 250.206 11.7562 250.251 11.7791 250.29C11.8019 250.33 11.8336 250.362 11.8712 250.385L14.9889 252.296C15.0477 252.332 15.1173 252.342 15.1831 252.325Z" fill="#6C63FF"/>
<path d="M19.6331 253.934C19.6583 253.928 19.6825 253.917 19.7047 253.902C19.734 253.883 19.7596 253.858 19.7798 253.828C19.8001 253.799 19.8148 253.765 19.8229 253.729C19.831 253.694 19.8325 253.657 19.8272 253.62C19.822 253.584 19.8101 253.549 19.7922 253.518L15.5299 246.026C15.4937 245.963 15.4356 245.918 15.3683 245.901C15.3011 245.883 15.2302 245.895 15.1712 245.934C15.1122 245.972 15.0698 246.034 15.0533 246.106C15.0368 246.178 15.0476 246.254 15.0833 246.317L19.3456 253.809C19.3747 253.86 19.4183 253.9 19.4701 253.922C19.5218 253.945 19.5789 253.949 19.6331 253.934Z" fill="#6C63FF"/>
<path d="M410.344 305.666C410.025 305.839 409.701 306.013 409.383 306.18C401.125 310.594 394.519 313.103 385.483 315.852C384.72 306.745 383.983 290.736 383.267 280.812C383.078 278.236 382.89 276.074 382.707 274.549C382.661 273.738 382.506 272.938 382.247 272.174L382.279 274.549L382.357 280.812L382.812 316.635C371.571 319.814 360.025 321.594 348.402 321.937C347.796 321.954 347.2 321.965 346.625 321.976C346.421 321.982 346.222 321.988 346.024 321.988C345.371 321.993 344.722 321.999 344.069 321.999C331.821 322.008 319.617 320.427 307.725 317.288C307.981 308.276 308.237 292.446 308.483 280.812C308.535 278.538 308.582 276.42 308.635 274.549C308.734 270.548 308.838 267.665 308.938 266.698C308.85 266.869 308.781 267.051 308.734 267.24C308.25 269.649 307.92 272.091 307.746 274.549C307.563 276.42 307.38 278.538 307.197 280.812C306.225 292.898 305.211 309.332 304.166 316.299C297.945 314.483 291.84 312.238 285.89 309.577C282.754 308.181 279.674 306.674 276.65 305.057C277.224 301.034 277.826 296.525 278.442 291.848C278.923 288.222 279.42 284.495 279.926 280.812C280.71 275.124 307.344 213.699 313.621 211.548L313.777 211.503L313.887 211.554L324.575 208.044L326.138 207.53L327.188 207.184L330.888 204.172L332.901 202.535L334.787 200.998L338.477 197.998L361.321 199.501L365.769 210.95L375.73 214.845L375.903 214.761L376.054 214.694L376.211 214.738C382.486 216.889 387.885 221.268 391.514 227.149C392.005 227.936 392.601 228.976 393.275 230.233C393.85 231.3 394.477 232.518 395.156 233.865C396.123 235.782 397.179 237.944 398.297 240.285C398.543 240.799 398.794 241.324 399.045 241.855C399.51 242.839 399.982 243.843 400.461 244.867C401.574 247.242 402.724 249.723 403.874 252.243C404.872 254.427 405.881 258.92 406.874 264.636C407.694 269.386 408.51 274.984 409.299 280.812C410.334 288.367 409.231 297.413 410.166 304.364C410.224 304.806 410.287 305.236 410.344 305.666Z" fill="#3F3D56"/>
<path d="M343.345 193.888C358.019 193.888 369.914 181.17 369.914 165.482C369.914 149.795 358.019 137.077 343.345 137.077C328.672 137.077 316.777 149.795 316.777 165.482C316.777 181.17 328.672 193.888 343.345 193.888Z" fill="#FFB6B6"/>
<path opacity="0.2" d="M300.858 264.612L305.299 246.289L309.22 262.099L300.858 264.612Z" fill="black"/>
<path d="M419.03 252.673C417.442 276.074 419.088 286.378 410.318 305.672C402.339 309.847 394.027 313.254 385.483 315.852C384.594 316.121 383.704 316.381 382.812 316.635C371.571 319.814 360.025 321.594 348.402 321.937C347.796 321.954 347.2 321.965 346.625 321.976C346.421 321.982 346.222 321.988 346.024 321.988C345.371 321.993 344.722 321.999 344.069 321.999C331.821 322.008 319.617 320.427 307.725 317.288C306.534 316.976 305.347 316.646 304.166 316.299C297.945 314.483 291.84 312.238 285.89 309.577C282.754 308.181 279.674 306.674 276.65 305.057C275.965 304.688 275.28 304.32 274.606 303.94C271.141 297.424 269.171 289.501 269.129 279.98C271.528 263.574 413.731 238.525 419.03 252.673Z" fill="#2F2E41"/>
<path opacity="0.2" d="M419.026 256.68C419.107 255.232 419.198 253.735 419.304 252.177C414.004 238.029 271.801 263.078 269.402 279.484C269.409 280.988 269.469 282.447 269.57 283.873C275.38 267.68 410.474 243.873 419.026 256.68Z" fill="black"/>
<path d="M265.592 253.777L277.265 247.537L267.538 219.459L264.974 205.299C264.641 203.459 263.863 201.745 262.716 200.328C261.569 198.911 260.094 197.84 258.44 197.223C256.785 196.606 255.007 196.465 253.285 196.812C251.563 197.16 249.956 197.985 248.625 199.204C246.653 201.011 245.415 203.567 245.172 206.331C244.929 209.096 245.7 211.853 247.323 214.021L256.838 226.738L265.592 253.777Z" fill="#FFB6B6"/>
<path d="M277.265 242.337L261.702 250.657L273.512 290.222C274.361 293.064 275.881 295.622 277.926 297.65C279.971 299.679 282.472 301.107 285.186 301.798C288.532 302.65 292.045 302.34 295.215 300.914C298.385 299.487 301.048 297.019 302.818 293.865L334.137 236.472C336.356 232.518 337.041 227.792 336.046 223.304C335.05 218.817 332.452 214.923 328.808 212.456C326.848 211.128 324.649 210.257 322.353 209.899C320.057 209.541 317.716 209.703 315.483 210.376C313.25 211.049 311.175 212.217 309.392 213.804C307.609 215.391 306.158 217.362 305.135 219.588L286.019 263.136L277.265 242.337Z" fill="#3F3D56"/>
<path d="M109.495 191.928C125.641 191.928 138.729 177.935 138.729 160.673C138.729 143.412 125.641 129.419 109.495 129.419C93.3502 129.419 80.262 143.412 80.262 160.673C80.262 177.935 93.3502 191.928 109.495 191.928Z" fill="#A0616A"/>
<path d="M80.613 139.135C82.9899 135.71 86.4063 133.275 89.0194 130.053C90.4532 128.285 91.6438 126.281 93.2557 124.699C96.2506 121.758 100.439 120.553 104.503 120.403C108.957 120.281 113.375 121.281 117.4 123.323C121.425 125.365 124.944 128.392 127.672 132.158C129.796 130.827 131.92 129.495 134.045 128.164C134.884 130.525 135.723 132.887 136.562 135.248C137.251 134.608 138.129 134.25 139.042 134.236C139.954 134.222 140.842 134.555 141.547 135.174C142.253 135.793 142.73 136.659 142.895 137.618C143.06 138.578 142.902 139.569 142.449 140.416C142.955 138.746 145.271 138.391 146.548 139.495C147.825 140.598 148.167 142.561 147.958 144.302C147.697 146.213 146.907 147.996 145.69 149.422C144.473 150.849 142.885 151.853 141.13 152.307C138.358 152.968 135.132 152.274 132.913 154.169C131.134 155.689 130.597 158.456 128.782 159.925C126.545 161.736 123.384 160.899 120.603 161.299C115.738 161.999 111.886 167.318 112.471 172.529C112.031 170.885 111.568 169.193 110.569 167.857C109.57 166.522 107.888 165.619 106.356 166.11C103.823 166.921 103.409 170.612 104.023 173.361C105.651 180.653 111.82 192.44 111.82 192.44C103.809 195.818 94.2654 192.624 88.0846 186.213C81.9038 179.802 78.6847 170.725 77.2824 161.641C76.0934 153.938 76.2619 145.406 80.613 139.135Z" fill="#2F2E41"/>
<path d="M376.641 181.141C382.203 167.508 379.052 154.963 372.272 148.308V148.303C369.607 141.916 366.063 136.988 362.007 135.831C360.048 134.484 358.145 132.903 356.034 132.099C355.05 131.705 354.002 131.528 352.953 131.579C351.904 131.63 350.876 131.907 349.929 132.395L348.853 132.087C347.938 129.59 346.867 129.539 345.675 131.182C341.086 128.897 336.952 127.874 333.273 127.874C321.274 127.874 314.176 138.737 312.295 151.868L322.324 154.723L325.81 148.783L324.2 155.259L329.735 156.829C338.16 168.558 328.078 195.613 315.3 210.666C318.342 209.767 321.371 209.007 324.388 208.387L335.353 191.199L328.559 206.844C332.087 206.291 336.587 206.822 341.505 207.889C343.161 205.576 344.034 202.492 343.177 199.742C344.578 202.642 345.545 205.759 346.041 208.979C356.421 211.689 370.579 213.08 378.209 214.108C384.374 211.957 384.391 187.657 376.641 181.141Z" fill="#2F2E41"/>
<path d="M380.259 134.769C384.333 144.521 376.113 148.715 368.583 148.597C361.779 148.49 355.996 143.379 355.649 136.113C355.482 132.624 356.619 129.207 358.808 126.614C360.998 124.02 364.062 122.463 367.325 122.285C374.121 121.914 377.485 128.126 380.259 134.769Z" fill="#2F2E41"/>
<path d="M191.274 293.524L184.564 281.557L206.875 263.46L216.152 252.988C217.357 251.628 218.875 250.629 220.555 250.093C222.234 249.556 224.015 249.5 225.721 249.93C227.427 250.36 228.998 251.261 230.276 252.543C231.554 253.826 232.495 255.444 233.004 257.237C233.76 259.894 233.52 262.76 232.336 265.232C231.152 267.703 229.116 269.586 226.658 270.483L212.243 275.745L191.274 293.524Z" fill="#A0616A"/>
<path d="M196.124 293.129L185.677 302.438L182.86 304.947L182.53 305.237C181.804 305.623 181.072 306.003 180.335 306.377C178.13 307.5 175.896 308.567 173.635 309.579C167.685 312.239 161.58 314.485 155.359 316.301C154.178 316.647 152.991 316.977 151.8 317.29C151.073 317.48 150.341 317.67 149.61 317.848C149.15 317.966 148.685 318.078 148.22 318.184C147.655 318.318 147.091 318.452 146.526 318.575C145.936 318.709 145.345 318.837 144.754 318.96C143.165 317.344 141.9 315.399 141.036 313.243C140.172 311.088 139.726 308.767 139.727 306.422C139.727 306.271 139.727 306.114 139.732 305.958L141.41 259.955L142.152 239.566C142.266 234.955 144.063 230.574 147.157 227.361C150.252 224.147 154.4 222.355 158.714 222.367C159.216 222.367 159.712 222.395 160.204 222.445C160.559 222.937 160.888 223.445 161.207 223.959C162.075 225.334 163.245 227.508 164.625 230.234C165.195 231.357 165.796 232.576 166.428 233.866C166.81 234.643 170.102 245.628 173.306 256.848L171.895 268.565L169.344 289.687L179.807 282.345L187.177 277.17L188.049 278.729L190.323 282.786L194.713 290.609L196.124 293.129Z" fill="#3F3D56"/>
<path d="M190.396 279.981C190.391 280.931 190.37 281.864 190.323 282.786C190.214 285.329 189.938 287.861 189.497 290.363C188.776 294.564 187.489 298.631 185.677 302.438C185.436 302.946 185.18 303.449 184.919 303.941C184.245 304.321 183.56 304.69 182.875 305.058C182.76 305.12 182.645 305.181 182.53 305.237C179.619 306.785 176.654 308.232 173.635 309.579C167.685 312.239 161.58 314.485 155.359 316.301C154.178 316.647 152.991 316.977 151.8 317.29C149.474 317.904 147.125 318.461 144.754 318.96C135.104 320.987 125.291 322.005 115.456 322C114.802 322 114.154 321.994 113.501 321.989C113.302 321.989 113.104 321.983 112.9 321.978C112.325 321.966 111.729 321.955 111.123 321.939C99.5002 321.595 87.9535 319.816 76.713 316.636C75.8193 316.384 74.9291 316.124 74.0423 315.854C65.4974 313.255 57.1861 309.848 49.2068 305.673C40.4371 286.379 42.0834 276.075 40.4946 252.674C43.7558 243.963 98.9301 250.115 141.41 259.955C152.939 262.626 163.527 265.57 171.895 268.565C180.539 271.655 186.805 274.796 189.262 277.746C189.836 278.357 190.23 279.134 190.396 279.981Z" fill="#2F2E41"/>
<path opacity="0.2" d="M40.4977 256.68C40.4165 255.232 40.3258 253.735 40.22 252.177C45.5195 238.029 187.722 263.078 190.121 279.484C190.115 280.988 190.055 282.447 189.953 283.873C184.144 267.68 49.0493 243.873 40.4977 256.68Z" fill="black"/>
</g>
<defs>
<clipPath id="clip0_29_540">
<rect width="460" height="322" fill="white"/>
</clipPath>
</defs>
</svg>
