<svg width="24" height="32" viewBox="0 0 24 32" fill="none" xmlns="http://www.w3.org/2000/svg">
<path d="M4 0H14.3431C15.404 0 16.4214 0.421426 17.1716 1.17157L22.8284 6.82843C23.5786 7.57857 24 8.59599 24 9.65685V28C24 30.2091 22.2091 32 20 32H4C1.79086 32 0 30.2091 0 28V4C0 1.79086 1.79086 0 4 0Z" fill="url(#paint0_linear_12_50)"/>
<rect x="6" y="5" width="1.5" height="1" fill="#353535"/>
<rect x="6" y="7" width="1.5" height="1" fill="#353535"/>
<rect x="6" y="9" width="1.5" height="1" fill="#353535"/>
<rect x="6" y="11" width="1.5" height="1" fill="#353535"/>
<rect x="6" y="13" width="1.5" height="1" fill="#353535"/>
<rect x="6" y="15" width="1.5" height="1" fill="#353535"/>
<rect x="6" y="17" width="3" height="0.5" fill="#353535"/>
<rect x="6" y="3.5" width="3" height="0.5" fill="#353535"/>
<rect x="6" width="3" height="0.5" fill="#353535"/>
<path fill-rule="evenodd" clip-rule="evenodd" d="M9 0.5H6V3H9V0.5ZM8.5 1.5H6.5V2.5H8.5V1.5Z" fill="#353535"/>
<rect x="7.5" y="4" width="1.5" height="1" fill="#353535"/>
<rect x="7.5" y="6" width="1.5" height="1" fill="#353535"/>
<rect x="7.5" y="8" width="1.5" height="1" fill="#353535"/>
<rect x="7.5" y="10" width="1.5" height="1" fill="#353535"/>
<rect x="7.5" y="12" width="1.5" height="1" fill="#353535"/>
<rect x="7.5" y="14" width="1.5" height="1" fill="#353535"/>
<rect x="7.5" y="16" width="1.5" height="1" fill="#353535"/>
<path d="M10.3027 28.0283V29H5.36621V28.0283H10.3027ZM10.1904 22.6475L5.82031 29H5V28.2236L9.38477 21.8906H10.1904V22.6475ZM9.73633 21.8906V22.8672H5.0293V21.8906H9.73633Z" fill="#353535"/>
<path d="M12.6758 21.8906V29H11.4502V21.8906H12.6758Z" fill="#353535"/>
<path d="M16.8994 26.3486H15.0488V25.377H16.8994C17.2217 25.377 17.4821 25.3249 17.6807 25.2207C17.8792 25.1165 18.0241 24.9733 18.1152 24.791C18.2096 24.6055 18.2568 24.3939 18.2568 24.1562C18.2568 23.9316 18.2096 23.7217 18.1152 23.5264C18.0241 23.3278 17.8792 23.1683 17.6807 23.0479C17.4821 22.9274 17.2217 22.8672 16.8994 22.8672H15.4248V29H14.1992V21.8906H16.8994C17.4495 21.8906 17.9167 21.9883 18.3008 22.1836C18.6882 22.3757 18.9827 22.6426 19.1846 22.9844C19.3864 23.3229 19.4873 23.7103 19.4873 24.1465C19.4873 24.6055 19.3864 24.9993 19.1846 25.3281C18.9827 25.6569 18.6882 25.9092 18.3008 26.085C17.9167 26.2607 17.4495 26.3486 16.8994 26.3486Z" fill="#353535"/>
<defs>
<linearGradient id="paint0_linear_12_50" x1="24.5" y1="33" x2="1.489e-06" y2="-1.10547e-06" gradientUnits="userSpaceOnUse">
<stop stop-color="#A6B9D6"/>
<stop offset="1" stop-color="white"/>
</linearGradient>
</defs>
</svg>
